<svg xmlns="http://www.w3.org/2000/svg" xmlns:xlink="http://www.w3.org/1999/xlink" version="1.1" data-diagram-type="DESCRIPTION" style="width:3073px;height:1399px;background:#FFFFFF;" width="3073px" height="1399px" viewBox="0 0 3073 1399" zoomAndPan="magnify" preserveAspectRatio="none" contentStyleType="text/css"><?plantuml 1.2026.7beta8?><defs/><g font-family="sans-serif" lengthAdjust="spacing"><g class="title" data-source-line="6"><text x="1422.781" y="22.995" fill="#000" font-size="14" textLength="220.548" font-weight="700" font-family="Urbanist">Arrow Maze — Capas CLEAN</text><text x="1163.497" y="39.292" fill="#000" font-size="14" textLength="739.115" font-weight="700" font-family="Urbanist">cliente arrowmaze-game v1.0.0 · las flechas de dependencia apuntan siempre hacia el centro</text></g><!--cluster L1--><g class="cluster" data-qualified-name="L1" id="ent0001" data-source-line="26"><rect x="7" y="60.594" width="2603" height="1183.31" fill="#D4E6F1" style="stroke:#333;stroke-width:1;" rx="2.5" ry="2.5"/><text x="1049.535" y="74.661" fill="#000" font-size="13" textLength="189.947" font-weight="700" font-family="Urbanist">FRAMEWORKS &amp; DRIVERS</text><text x="1248.534" y="74.661" fill="#000" font-size="13" textLength="318.932" font-weight="700" font-family="Urbanist">·  React 19 · Capacitor · SQLite · fetch/HTTP</text></g><!--cluster L2--><g class="cluster" data-qualified-name="L1.L2" id="ent0004" data-source-line="31"><rect x="31" y="236.494" width="2257" height="983.41" fill="#D5F5E3" style="stroke:#333;stroke-width:1;" rx="2.5" ry="2.5"/><text x="867.035" y="250.561" fill="#000" font-size="13" textLength="162.925" font-weight="700" font-family="Urbanist">INTERFACE ADAPTERS</text><text x="1039.012" y="250.561" fill="#000" font-size="13" textLength="412.953" font-weight="700" font-family="Urbanist">·  src/infrastructure + controladores de src/presentation</text></g><!--cluster L3--><g class="cluster" data-qualified-name="L1.L2.L3" id="ent0010" data-source-line="39"><rect x="55" y="412.384" width="1404" height="783.52" fill="#FCF3CF" style="stroke:#333;stroke-width:1;" rx="2.5" ry="2.5"/><text x="547.013" y="426.451" fill="#000" font-size="13" textLength="97.475" font-weight="700" font-family="Urbanist">APPLICATION</text><text x="653.54" y="426.451" fill="#000" font-size="13" textLength="313.447" font-weight="700" font-family="Urbanist">·  casos de uso y puertos  ·  src/application</text></g><!--cluster L4--><g class="cluster" data-qualified-name="L1.L2.L3.L4" id="ent0018" data-source-line="50"><rect x="87" y="811.564" width="950" height="352.34" fill="#FADBD8" style="stroke:#333;stroke-width:1;" rx="2.5" ry="2.5"/><text x="340.406" y="825.631" fill="#000" font-size="13" textLength="60.557" font-weight="700" font-family="Urbanist">DOMAIN</text><text x="410.015" y="825.631" fill="#000" font-size="13" textLength="373.579" font-weight="700" font-family="Urbanist">·  entidades puras, sin dependencias  ·  src/domain</text></g><!--entity UI--><g class="entity" data-qualified-name="L1.UI" id="ent0002" data-source-line="28"><rect x="471.61" y="94.594" width="232.78" height="78.891" fill="#FFF" style="stroke:#555;stroke-width:0.5;" rx="2.5" ry="2.5"/><rect x="684.39" y="99.594" width="15" height="10" fill="#FFF" style="stroke:#555;stroke-width:0.5;"/><rect x="682.39" y="101.594" width="4" height="2" fill="#FFF" style="stroke:#555;stroke-width:0.5;"/><rect x="682.39" y="105.594" width="4" height="2" fill="#FFF" style="stroke:#555;stroke-width:0.5;"/><text x="486.61" y="127.589" fill="#000" font-size="14" textLength="137.997" font-family="Urbanist">LevelSelectScreen /</text><text x="486.61" y="143.886" fill="#000" font-size="14" textLength="192.78" font-family="Urbanist">GameView (SVG) / overlays</text><text x="486.61" y="160.183" fill="#000" font-size="14" textLength="114.386" font-style="italic" font-family="Urbanist">src/presentation</text></g><!--entity Driver--><g class="entity" data-qualified-name="L1.Driver" id="ent0003" data-source-line="29"><rect x="2304.08" y="867.274" width="289.847" height="62.594" fill="#FFF" style="stroke:#555;stroke-width:0.5;" rx="2.5" ry="2.5"/><rect x="2573.927" y="872.274" width="15" height="10" fill="#FFF" style="stroke:#555;stroke-width:0.5;"/><rect x="2571.927" y="874.274" width="4" height="2" fill="#FFF" style="stroke:#555;stroke-width:0.5;"/><rect x="2571.927" y="878.274" width="4" height="2" fill="#FFF" style="stroke:#555;stroke-width:0.5;"/><text x="2319.08" y="900.269" fill="#000" font-size="14" textLength="149.953" font-family="Urbanist">CapacitorSqliteDriver</text><text x="2319.08" y="916.566" fill="#000" font-size="14" textLength="249.847" font-style="italic" font-family="Urbanist">src/infrastructure/persistence/sqlite</text></g><!--entity Ctrl--><g class="entity" data-qualified-name="L1.L2.Ctrl" id="ent0005" data-source-line="33"><rect x="488.59" y="270.494" width="198.819" height="78.891" fill="#FFF" style="stroke:#555;stroke-width:0.5;" rx="2.5" ry="2.5"/><rect x="667.409" y="275.494" width="15" height="10" fill="#FFF" style="stroke:#555;stroke-width:0.5;"/><rect x="665.409" y="277.494" width="4" height="2" fill="#FFF" style="stroke:#555;stroke-width:0.5;"/><rect x="665.409" y="281.494" width="4" height="2" fill="#FFF" style="stroke:#555;stroke-width:0.5;"/><text x="503.59" y="303.489" fill="#000" font-size="14" textLength="120.019" font-family="Urbanist">GameController /</text><text x="503.59" y="319.786" fill="#000" font-size="14" textLength="135.632" font-family="Urbanist">useGameController</text><text x="503.59" y="336.083" fill="#000" font-size="14" textLength="158.819" font-style="italic" font-family="Urbanist">src/presentation/game</text></g><!--entity SqliteRepo--><g class="entity" data-qualified-name="L1.L2.SqliteRepo" id="ent0006" data-source-line="34"><rect x="2024.47" y="1061.014" width="247.067" height="78.891" fill="#FFF" style="stroke:#555;stroke-width:0.5;" rx="2.5" ry="2.5"/><rect x="2251.537" y="1066.014" width="15" height="10" fill="#FFF" style="stroke:#555;stroke-width:0.5;"/><rect x="2249.537" y="1068.014" width="4" height="2" fill="#FFF" style="stroke:#555;stroke-width:0.5;"/><rect x="2249.537" y="1072.014" width="4" height="2" fill="#FFF" style="stroke:#555;stroke-width:0.5;"/><text x="2107.043" y="1094.009" fill="#000" font-size="14" textLength="71.921" font-style="italic" font-family="Urbanist">«adapter»</text><text x="2039.47" y="1110.306" fill="#000" font-size="14" textLength="175.335" font-family="Urbanist">SqliteProgressRepository</text><text x="2039.47" y="1126.603" fill="#000" font-size="14" textLength="207.067" font-style="italic" font-family="Urbanist">src/infrastructure/persistence</text></g><!--entity FetchClients--><g class="entity" data-qualified-name="L1.L2.FetchClients" id="ent0007" data-source-line="35"><rect x="1758.73" y="1036.564" width="230.531" height="127.781" fill="#FFF" style="stroke:#555;stroke-width:0.5;" rx="2.5" ry="2.5"/><rect x="1969.261" y="1041.564" width="15" height="10" fill="#FFF" style="stroke:#555;stroke-width:0.5;"/><rect x="1967.261" y="1043.564" width="4" height="2" fill="#FFF" style="stroke:#555;stroke-width:0.5;"/><rect x="1967.261" y="1047.564" width="4" height="2" fill="#FFF" style="stroke:#555;stroke-width:0.5;"/><text x="1833.035" y="1069.559" fill="#000" font-size="14" textLength="71.921" font-style="italic" font-family="Urbanist">«adapter»</text><text x="1773.73" y="1085.856" fill="#000" font-size="14" textLength="147.711" font-family="Urbanist">FetchLevelApiClient ·</text><text x="1773.73" y="1102.153" fill="#000" font-size="14" textLength="171.117" font-family="Urbanist">FetchProgressApiClient ·</text><text x="1773.73" y="1118.449" fill="#000" font-size="14" textLength="143.322" font-family="Urbanist">FetchAuthApiClient ·</text><text x="1773.73" y="1134.746" fill="#000" font-size="14" textLength="190.531" font-family="Urbanist">FetchLeaderboardApiClient</text><text x="1773.73" y="1151.043" fill="#000" font-size="14" textLength="147.403" font-style="italic" font-family="Urbanist">src/infrastructure/api</text></g><!--entity InMemRepo--><g class="entity" data-qualified-name="L1.L2.InMemRepo" id="ent0008" data-source-line="36"><rect x="1474.67" y="1061.014" width="248.66" height="78.891" fill="#FFF" style="stroke:#555;stroke-width:0.5;" rx="2.5" ry="2.5"/><rect x="1703.33" y="1066.014" width="15" height="10" fill="#FFF" style="stroke:#555;stroke-width:0.5;"/><rect x="1701.33" y="1068.014" width="4" height="2" fill="#FFF" style="stroke:#555;stroke-width:0.5;"/><rect x="1701.33" y="1072.014" width="4" height="2" fill="#FFF" style="stroke:#555;stroke-width:0.5;"/><text x="1558.04" y="1094.009" fill="#000" font-size="14" textLength="71.921" font-style="italic" font-family="Urbanist">«adapter»</text><text x="1489.67" y="1110.306" fill="#000" font-size="14" textLength="182.212" font-family="Urbanist">InMemoryLevelRepository</text><text x="1489.67" y="1126.603" fill="#000" font-size="14" textLength="208.66" font-style="italic" font-family="Urbanist">src/infrastructure/repositories</text></g><!--entity Factory--><g class="entity" data-qualified-name="L1.L2.Factory" id="ent0009" data-source-line="37"><rect x="1474.76" y="653.524" width="240.471" height="78.891" fill="#FFF" style="stroke:#555;stroke-width:0.5;" rx="2.5" ry="2.5"/><rect x="1695.231" y="658.524" width="15" height="10" fill="#FFF" style="stroke:#555;stroke-width:0.5;"/><rect x="1693.231" y="660.524" width="4" height="2" fill="#FFF" style="stroke:#555;stroke-width:0.5;"/><rect x="1693.231" y="664.524" width="4" height="2" fill="#FFF" style="stroke:#555;stroke-width:0.5;"/><text x="1526.739" y="686.519" fill="#000" font-size="14" textLength="126.513" font-style="italic" font-family="Urbanist">«Factory Method»</text><text x="1489.76" y="702.816" fill="#000" font-size="14" textLength="200.471" font-family="Urbanist">LocalProgressModuleFactory</text><text x="1489.76" y="719.113" fill="#000" font-size="14" textLength="186.86" font-style="italic" font-family="Urbanist">src/infrastructure/factories</text></g><!--entity PlayMove--><g class="entity" data-qualified-name="L1.L2.L3.PlayMove" id="ent0011" data-source-line="41"><rect x="70.76" y="476.084" width="294.481" height="62.594" fill="#FFF" style="stroke:#555;stroke-width:0.5;" rx="2.5" ry="2.5"/><rect x="345.241" y="481.084" width="15" height="10" fill="#FFF" style="stroke:#555;stroke-width:0.5;"/><rect x="343.241" y="483.084" width="4" height="2" fill="#FFF" style="stroke:#555;stroke-width:0.5;"/><rect x="343.241" y="487.084" width="4" height="2" fill="#FFF" style="stroke:#555;stroke-width:0.5;"/><text x="85.76" y="509.079" fill="#000" font-size="14" textLength="127.155" font-family="Urbanist">PlayMoveUseCase</text><text x="85.76" y="525.376" fill="#000" font-size="14" textLength="254.481" font-family="Urbanist">(envuelve a AdvanceArrowUseCase)</text></g><!--entity MotorUC--><g class="entity" data-qualified-name="L1.L2.L3.MotorUC" id="ent0012" data-source-line="42"><rect x="335.53" y="645.384" width="210.933" height="95.188" fill="#FFF" style="stroke:#555;stroke-width:0.5;" rx="2.5" ry="2.5"/><rect x="526.463" y="650.384" width="15" height="10" fill="#FFF" style="stroke:#555;stroke-width:0.5;"/><rect x="524.463" y="652.384" width="4" height="2" fill="#FFF" style="stroke:#555;stroke-width:0.5;"/><rect x="524.463" y="656.384" width="4" height="2" fill="#FFF" style="stroke:#555;stroke-width:0.5;"/><text x="350.53" y="678.379" fill="#000" font-size="14" textLength="170.933" font-family="Urbanist">AdvanceArrowUseCase ·</text><text x="350.53" y="694.676" fill="#000" font-size="14" textLength="144.587" font-family="Urbanist">SlideArrowUseCase ·</text><text x="350.53" y="710.973" fill="#000" font-size="14" textLength="147.643" font-family="Urbanist">PlaceArrowUseCase ·</text><text x="350.53" y="727.269" fill="#000" font-size="14" textLength="136.951" font-family="Urbanist">BuildBoardUseCase</text></g><!--entity DataUC--><g class="entity" data-qualified-name="L1.L2.L3.DataUC" id="ent0013" data-source-line="43"><rect x="1049.8" y="645.384" width="180.403" height="95.188" fill="#FFF" style="stroke:#555;stroke-width:0.5;" rx="2.5" ry="2.5"/><rect x="1210.203" y="650.384" width="15" height="10" fill="#FFF" style="stroke:#555;stroke-width:0.5;"/><rect x="1208.203" y="652.384" width="4" height="2" fill="#FFF" style="stroke:#555;stroke-width:0.5;"/><rect x="1208.203" y="656.384" width="4" height="2" fill="#FFF" style="stroke:#555;stroke-width:0.5;"/><text x="1064.8" y="678.379" fill="#000" font-size="14" textLength="94.302" font-family="Urbanist">LevelLoader ·</text><text x="1064.8" y="694.676" fill="#000" font-size="14" textLength="130.99" font-family="Urbanist">GetLocalProgress ·</text><text x="1064.8" y="710.973" fill="#000" font-size="14" textLength="140.403" font-family="Urbanist">SaveLocalProgress ·</text><text x="1064.8" y="727.269" fill="#000" font-size="14" textLength="94.35" font-family="Urbanist">SyncProgress</text></g><!--entity Flow--><g class="entity" data-qualified-name="L1.L2.L3.Flow" id="ent0014" data-source-line="44"><rect x="617.58" y="653.524" width="204.849" height="78.891" fill="#FFF" style="stroke:#555;stroke-width:0.5;" rx="2.5" ry="2.5"/><rect x="802.429" y="658.524" width="15" height="10" fill="#FFF" style="stroke:#555;stroke-width:0.5;"/><rect x="800.429" y="660.524" width="4" height="2" fill="#FFF" style="stroke:#555;stroke-width:0.5;"/><rect x="800.429" y="664.524" width="4" height="2" fill="#FFF" style="stroke:#555;stroke-width:0.5;"/><text x="687.91" y="686.519" fill="#000" font-size="14" textLength="54.188" font-style="italic" font-family="Urbanist">«State»</text><text x="632.58" y="702.816" fill="#000" font-size="14" textLength="142.81" font-family="Urbanist">GameFlowController</text><text x="632.58" y="719.113" fill="#000" font-size="14" textLength="164.849" font-style="italic" font-family="Urbanist">src/application/services</text></g><!--entity IProgress--><g class="entity" data-qualified-name="L1.L2.L3.IProgress" id="ent0015" data-source-line="46"><ellipse cx="1347" cy="898.564" rx="8" ry="8" fill="#FFF" style="stroke:#555;stroke-width:0.5;"/><text x="1258.83" y="928.559" fill="#000" font-size="14" textLength="176.34" font-family="Urbanist">ILocalProgressRepository</text></g><!--entity IClients--><g class="entity" data-qualified-name="L1.L2.L3.IClients" id="ent0016" data-source-line="47"><ellipse cx="1140" cy="898.564" rx="8" ry="8" fill="#FFF" style="stroke:#555;stroke-width:0.5;"/><text x="1071.74" y="928.559" fill="#000" font-size="14" textLength="113.114" font-family="Urbanist">ILevelApiClient ·</text><text x="1071.74" y="944.856" fill="#000" font-size="14" textLength="136.521" font-family="Urbanist">IProgressApiClient ·</text><text x="1071.74" y="961.153" fill="#000" font-size="14" textLength="99.825" font-family="Urbanist">IAuthApiClient</text></g><!--entity IMisc--><g class="entity" data-qualified-name="L1.L2.L3.IMisc" id="ent0017" data-source-line="48"><ellipse cx="530" cy="507.384" rx="8" ry="8" fill="#FFF" style="stroke:#555;stroke-width:0.5;"/><text x="407.237" y="537.379" fill="#000" font-size="14" textLength="191.536" font-family="Urbanist">IClock · IAudioPreferences ·</text><text x="407.237" y="553.676" fill="#000" font-size="14" textLength="155.675" font-family="Urbanist">IThemePreference · …</text><text x="407.237" y="569.973" fill="#000" font-size="14" textLength="245.526" font-style="italic" font-family="Urbanist">14 puertos en src/application/ports</text></g><!--entity Session--><g class="entity" data-qualified-name="L1.L2.L3.L4.Session" id="ent0019" data-source-line="51"><rect x="567.33" y="867.274" width="247.341" height="62.594" fill="#FFF" style="stroke:#555;stroke-width:0.5;" rx="2.5" ry="2.5"/><rect x="794.671" y="872.274" width="15" height="10" fill="#FFF" style="stroke:#555;stroke-width:0.5;"/><rect x="792.671" y="874.274" width="4" height="2" fill="#FFF" style="stroke:#555;stroke-width:0.5;"/><rect x="792.671" y="878.274" width="4" height="2" fill="#FFF" style="stroke:#555;stroke-width:0.5;"/><text x="582.33" y="900.269" fill="#000" font-size="14" textLength="105.649" font-weight="700" font-family="Urbanist">GameSession</text><text x="582.33" y="916.566" fill="#000" font-size="14" textLength="207.341" font-family="Urbanist">(agregado raíz · GameStatus)</text></g><!--entity BoardEnt--><g class="entity" data-qualified-name="L1.L2.L3.L4.BoardEnt" id="ent0020" data-source-line="52"><rect x="333.72" y="867.274" width="198.56" height="62.594" fill="#FFF" style="stroke:#555;stroke-width:0.5;" rx="2.5" ry="2.5"/><rect x="512.28" y="872.274" width="15" height="10" fill="#FFF" style="stroke:#555;stroke-width:0.5;"/><rect x="510.28" y="874.274" width="4" height="2" fill="#FFF" style="stroke:#555;stroke-width:0.5;"/><rect x="510.28" y="878.274" width="4" height="2" fill="#FFF" style="stroke:#555;stroke-width:0.5;"/><text x="348.72" y="900.269" fill="#000" font-size="14" textLength="89.811" font-family="Urbanist">Board · Cell ·</text><text x="348.72" y="916.566" fill="#000" font-size="14" textLength="158.56" font-family="Urbanist">Arrow · ArrowSegment</text></g><!--entity VOs--><g class="entity" data-qualified-name="L1.L2.L3.L4.VOs" id="ent0021" data-source-line="53"><rect x="111.17" y="867.274" width="187.663" height="62.594" fill="#FFF" style="stroke:#555;stroke-width:0.5;" rx="2.5" ry="2.5"/><rect x="278.833" y="872.274" width="15" height="10" fill="#FFF" style="stroke:#555;stroke-width:0.5;"/><rect x="276.833" y="874.274" width="4" height="2" fill="#FFF" style="stroke:#555;stroke-width:0.5;"/><rect x="276.833" y="878.274" width="4" height="2" fill="#FFF" style="stroke:#555;stroke-width:0.5;"/><text x="126.17" y="900.269" fill="#000" font-size="14" textLength="90.022" font-family="Urbanist">Score · Port ·</text><text x="126.17" y="916.566" fill="#000" font-size="14" textLength="147.663" font-family="Urbanist">AdvanceResult (VOs)</text></g><!--entity DomSvc--><g class="entity" data-qualified-name="L1.L2.L3.L4.DomSvc" id="ent0022" data-source-line="54"><rect x="600.97" y="1061.014" width="180.055" height="78.891" fill="#FFF" style="stroke:#555;stroke-width:0.5;" rx="2.5" ry="2.5"/><rect x="761.025" y="1066.014" width="15" height="10" fill="#FFF" style="stroke:#555;stroke-width:0.5;"/><rect x="759.025" y="1068.014" width="4" height="2" fill="#FFF" style="stroke:#555;stroke-width:0.5;"/><rect x="759.025" y="1072.014" width="4" height="2" fill="#FFF" style="stroke:#555;stroke-width:0.5;"/><text x="615.97" y="1094.009" fill="#000" font-size="14" textLength="97.72" font-family="Urbanist">PathChecker ·</text><text x="615.97" y="1110.306" fill="#000" font-size="14" textLength="127.408" font-family="Urbanist">TopologyValidator</text><text x="615.97" y="1126.603" fill="#000" font-size="14" textLength="140.055" font-style="italic" font-family="Urbanist">src/domain/services</text></g><!--entity ILevelRepo--><g class="entity" data-qualified-name="L1.L2.L3.L4.ILevelRepo" id="ent0023" data-source-line="55"><ellipse cx="922" cy="898.564" rx="8" ry="8" fill="#FFF" style="stroke:#555;stroke-width:0.5;"/><text x="857.554" y="928.559" fill="#000" font-size="14" textLength="116.402" font-family="Urbanist">ILevelRepository</text><text x="857.554" y="944.856" fill="#000" font-size="14" textLength="128.892" font-style="italic" font-family="Urbanist">puerto de dominio</text></g><!--entity API--><g class="entity" data-qualified-name="API" id="ent0024" data-source-line="61"><rect x="1782.51" y="1306.904" width="182.98" height="78.891" fill="#EEE" style="stroke:#555;stroke-width:0.5;" rx="2.5" ry="2.5"/><rect x="1945.49" y="1311.904" width="15" height="10" fill="#EEE" style="stroke:#555;stroke-width:0.5;"/><rect x="1943.49" y="1313.904" width="4" height="2" fill="#EEE" style="stroke:#555;stroke-width:0.5;"/><rect x="1943.49" y="1317.904" width="4" height="2" fill="#EEE" style="stroke:#555;stroke-width:0.5;"/><text x="1797.51" y="1339.899" fill="#000" font-size="14" textLength="142.98" font-family="Urbanist">arrowmaze-backend</text><text x="1797.51" y="1356.196" fill="#000" font-size="14" textLength="132.959" font-family="Urbanist">(API REST Express)</text><text x="1797.51" y="1372.493" fill="#000" font-size="14" textLength="113.442" font-style="italic" font-family="Urbanist">sistema externo</text></g><g class="entity" data-qualified-name="GMN46" id="ent0047" data-source-line="87"><path d="M2625.89,1065.194 L2625.89,1135.725 L3058.11,1135.725 L3058.11,1075.194 L3048.11,1065.194 L2625.89,1065.194" style="stroke:#C8871A;stroke-width:0.5;" fill="#FFF9E6"/><path d="M3048.11,1065.194 L3048.11,1075.194 L3058.11,1075.194 L3048.11,1065.194" style="stroke:#C8871A;stroke-width:1;" fill="#FFF9E6"/><text x="2631.89" y="1082.261" fill="#000" font-size="13" textLength="11.826" font-family="Urbanist">El</text><text x="2647.848" y="1082.261" fill="#000" font-size="13" textLength="185.872" font-weight="700" font-family="Urbanist">Dominio no importa nada</text><text x="2833.72" y="1082.261" fill="#000" font-size="13" textLength="189.858" font-family="Urbanist">: ni React, ni SQLite, ni fetch.</text><text x="2631.89" y="1097.393" fill="#000" font-size="13" textLength="401.788" font-family="Urbanist">Los puertos (interfaces ○) se declaran en Application/Domain</text><text x="2631.89" y="1112.526" fill="#000" font-size="13" textLength="411.22" font-family="Urbanist">y los adaptadores externos los implementan — la dependencia</text><text x="2631.89" y="1127.659" fill="#000" font-size="13" textLength="245.121" font-family="Urbanist">se invierte y siempre cruza los anillos</text><text x="2881.143" y="1127.659" fill="#000" font-size="13" textLength="108.621" font-weight="700" font-family="Urbanist">hacia el centro</text><text x="2989.765" y="1127.659" fill="#000" font-size="13" font-family="Urbanist">.</text></g><!--link UI to Ctrl--><g class="link" data-entity-1="ent0002" data-entity-2="ent0005" id="lnk25" data-source-line="64" data-link-type="dependency"><path d="M588,173.634 C588,202.354 588,236.384 588,265.154" style="stroke:#333;stroke-width:1;" fill="none" id="UI-to-Ctrl"/><polygon points="588,270.154,592,261.154,588,265.154,584,261.154,588,270.154" fill="#333" style="stroke:#333;stroke-width:1;stroke-linejoin:miter;stroke-miterlimit:10;"/><text x="589" y="216.561" fill="#000" font-size="13" textLength="125.976" font-family="Urbanist">renderiza / eventos</text></g><!--link Ctrl to PlayMove--><g class="link" data-entity-1="ent0005" data-entity-2="ent0011" id="lnk26" data-source-line="65" data-link-type="dependency"><path d="M495.49,349.814 C459.55,365.714 418.36,384.934 382,404.384 C340.9,426.364 300.265,451.808 267.885,472.978" style="stroke:#333;stroke-width:1;" fill="none" id="Ctrl-to-PlayMove"/><polygon points="263.7,475.714,273.422,474.137,267.885,472.978,269.044,467.441,263.7,475.714" fill="#333" style="stroke:#333;stroke-width:1;stroke-linejoin:miter;stroke-miterlimit:10;"/><text x="428" y="392.451" fill="#000" font-size="13" textLength="48.058" font-family="Urbanist">ejecuta</text></g><!--link Ctrl to Flow--><g class="link" data-entity-1="ent0005" data-entity-2="ent0014" id="lnk27" data-source-line="66" data-link-type="dependency"><path d="M635.44,349.864 C651.11,365.214 667.06,384.054 677,404.384 C717.02,486.244 722.028,590.644 721.478,648.044" style="stroke:#333;stroke-width:1;" fill="none" id="Ctrl-to-Flow"/><polygon points="721.43,653.044,725.516,644.082,721.478,648.044,717.516,644.006,721.43,653.044" fill="#333" style="stroke:#333;stroke-width:1;stroke-linejoin:miter;stroke-miterlimit:10;"/><text x="719" y="511.951" fill="#000" font-size="13" textLength="98.3" font-family="Urbanist">pausa / ajustes</text></g><!--link Driver to SqliteRepo--><g class="link" data-entity-1="ent0003" data-entity-2="ent0006" id="lnk28" data-source-line="67" data-link-type="dependency"><path d="M2402.63,930.364 C2349.94,965.354 2268.025,1019.758 2210.735,1057.798" style="stroke:#333;stroke-width:1;" fill="none" id="Driver-to-SqliteRepo"/><polygon points="2206.57,1060.564,2216.28,1058.918,2210.735,1057.798,2211.855,1052.253,2206.57,1060.564" fill="#333" style="stroke:#333;stroke-width:1;stroke-linejoin:miter;stroke-miterlimit:10;"/><text x="2308" y="1002.631" fill="#000" font-size="13" textLength="108.208" font-family="Urbanist">provee conexión</text></g><!--link PlayMove to MotorUC--><g class="link" data-entity-1="ent0011" data-entity-2="ent0012" id="lnk29" data-source-line="69" data-link-type="dependency"><path d="M221.71,539.114 C226.04,562.644 235.3,594.514 255,615.384 C261.61,622.384 292.367,635.724 330.547,650.734" style="stroke:#333;stroke-width:1;" fill="none" id="PlayMove-to-MotorUC"/><polygon points="335.2,652.564,328.288,645.548,330.547,650.734,325.361,652.993,335.2,652.564" fill="#333" style="stroke:#333;stroke-width:1;stroke-linejoin:miter;stroke-miterlimit:10;"/><text x="256" y="611.451" fill="#000" font-size="13" textLength="97.024" font-family="Urbanist">orquesta (SRP)</text></g><!--link MotorUC to Session--><g class="link" data-entity-1="ent0012" data-entity-2="ent0019" id="lnk30" data-source-line="70" data-link-type="dependency"><path d="M498.67,740.934 C546.26,779.694 608.523,830.396 649.533,863.796" style="stroke:#333;stroke-width:1;" fill="none" id="MotorUC-to-Session"/><polygon points="653.41,866.954,648.958,858.169,649.533,863.796,643.906,864.372,653.41,866.954" fill="#333" style="stroke:#333;stroke-width:1;stroke-linejoin:miter;stroke-miterlimit:10;"/></g><!--link MotorUC to BoardEnt--><g class="link" data-entity-1="ent0012" data-entity-2="ent0020" id="lnk31" data-source-line="71" data-link-type="dependency"><path d="M439.15,740.934 C437.63,779.694 435.717,828.558 434.397,861.958" style="stroke:#333;stroke-width:1;" fill="none" id="MotorUC-to-BoardEnt"/><polygon points="434.2,866.954,438.552,858.119,434.397,861.958,430.559,857.803,434.2,866.954" fill="#333" style="stroke:#333;stroke-width:1;stroke-linejoin:miter;stroke-miterlimit:10;"/></g><!--link PlayMove to VOs--><g class="link" data-entity-1="ent0011" data-entity-2="ent0021" id="lnk32" data-source-line="72" data-link-type="dependency"><path d="M216.98,538.914 C214.55,611.584 208.628,789.117 206.188,861.907" style="stroke:#333;stroke-width:1;" fill="none" id="PlayMove-to-VOs"/><polygon points="206.02,866.904,210.319,858.043,206.188,861.907,202.324,857.775,206.02,866.904" fill="#333" style="stroke:#333;stroke-width:1;stroke-linejoin:miter;stroke-miterlimit:10;"/><text x="215" y="697.541" fill="#000" font-size="13" textLength="94.015" font-family="Urbanist">produce Score</text></g><!--link DataUC to ILevelRepo--><g class="link" data-entity-1="ent0013" data-entity-2="ent0023" id="lnk33" data-source-line="73" data-link-type="dependency"><path d="M1065.45,740.824 C1042.63,756.824 1018.23,775.724 998,795.564 C966.31,826.654 940.123,867.529 929.223,885.499" style="stroke:#333;stroke-width:1;" fill="none" id="DataUC-to-ILevelRepo"/><polygon points="926.63,889.774,934.718,884.153,929.223,885.499,927.878,880.004,926.63,889.774" fill="#333" style="stroke:#333;stroke-width:1;stroke-linejoin:miter;stroke-miterlimit:10;"/><text x="1024" y="783.631" fill="#000" font-size="13" textLength="69.666" font-family="Urbanist">lee niveles</text></g><!--link Flow to Session--><g class="link" data-entity-1="ent0014" data-entity-2="ent0019" id="lnk34" data-source-line="74" data-link-type="dependency"><path d="M714.48,732.744 C708.92,771.744 701.175,826.134 696.075,861.964" style="stroke:#333;stroke-width:1;" fill="none" id="Flow-to-Session"/><polygon points="695.37,866.914,700.598,858.567,696.075,861.964,692.678,857.44,695.37,866.914" fill="#333" style="stroke:#333;stroke-width:1;stroke-linejoin:miter;stroke-miterlimit:10;"/><text x="710" y="783.631" fill="#000" font-size="13" textLength="139.287" font-family="Urbanist">consulta GameStatus</text></g><!--link DataUC to IProgress--><g class="link" data-entity-1="ent0013" data-entity-2="ent0015" id="lnk35" data-source-line="75" data-link-type="dependency"><path d="M1187.75,740.934 C1238.37,790.734 1310.795,861.968 1335.425,886.188" style="stroke:#333;stroke-width:1;" fill="none" id="DataUC-to-IProgress"/><polygon points="1338.99,889.694,1335.377,880.531,1335.425,886.188,1329.768,886.235,1338.99,889.694" fill="#333" style="stroke:#333;stroke-width:1;stroke-linejoin:miter;stroke-miterlimit:10;"/></g><!--link DataUC to IClients--><g class="link" data-entity-1="ent0013" data-entity-2="ent0016" id="lnk36" data-source-line="76" data-link-type="dependency"><path d="M1140,740.934 C1140,790.734 1140,860.474 1140,884.694" style="stroke:#333;stroke-width:1;" fill="none" id="DataUC-to-IClients"/><polygon points="1140,889.694,1144,880.694,1140,884.694,1136,880.694,1140,889.694" fill="#333" style="stroke:#333;stroke-width:1;stroke-linejoin:miter;stroke-miterlimit:10;"/></g><!--link Session to DomSvc--><g class="link" data-entity-1="ent0019" data-entity-2="ent0022" id="lnk37" data-source-line="77" data-link-type="dependency"><path d="M691,930.364 C691,965.404 691,1017.694 691,1055.744" style="stroke:#333;stroke-width:1;" fill="none" id="Session-to-DomSvc"/><polygon points="691,1060.744,695,1051.744,691,1055.744,687,1051.744,691,1060.744" fill="#333" style="stroke:#333;stroke-width:1;stroke-linejoin:miter;stroke-miterlimit:10;"/></g><!--reverse link IProgress to SqliteRepo--><g class="link" data-entity-1="ent0015" data-entity-2="ent0006" id="lnk39" data-source-line="80" data-link-type="extension"><path d="M1370.01,917.508 C1386.68,930.348 1410.33,946.654 1447,959.564 C1683.97,1043.004 1765.42,967.594 2007,1036.564 C2028.52,1042.714 2051,1051.534 2071.53,1060.644" style="stroke:#333;stroke-width:1;stroke-dasharray:7,7;" fill="none" id="IProgress-backto-SqliteRepo"/><polygon points="1355.75,906.524,1366.349,922.261,1373.672,912.754,1355.75,906.524" fill="none" style="stroke:#333;stroke-width:1;stroke-linejoin:miter;stroke-miterlimit:10;"/><text x="1838" y="1002.631" fill="#000" font-size="13" textLength="76.908" font-family="Urbanist">implements</text></g><!--reverse link IClients to FetchClients--><g class="link" data-entity-1="ent0016" data-entity-2="ent0007" id="lnk41" data-source-line="81" data-link-type="extension"><path d="M1162.407,918.392 C1178.027,931.342 1198.85,946.644 1233,959.564 C1339.79,999.974 1631.79,1003.254 1741,1036.564 C1746.74,1038.314 1752.55,1040.274 1758.36,1042.394" style="stroke:#333;stroke-width:1;stroke-dasharray:7,7;" fill="none" id="IClients-backto-FetchClients"/><polygon points="1148.55,906.904,1158.578,923.011,1166.236,913.773,1148.55,906.904" fill="none" style="stroke:#333;stroke-width:1;stroke-linejoin:miter;stroke-miterlimit:10;"/><text x="1535" y="1002.631" fill="#000" font-size="13" textLength="76.908" font-family="Urbanist">implements</text></g><!--reverse link ILevelRepo to InMemRepo--><g class="link" data-entity-1="ent0023" data-entity-2="ent0008" id="lnk43" data-source-line="82" data-link-type="extension"><path d="M907.602,922.832 C895.812,942.262 878.69,977.654 904,1006.564 C922.6,1027.824 1279.64,1067.094 1474.53,1087.074" style="stroke:#333;stroke-width:1;stroke-dasharray:7,7;" fill="none" id="ILevelRepo-backto-InMemRepo"/><polygon points="916.94,907.444,902.473,919.72,912.732,925.945,916.94,907.444" fill="none" style="stroke:#333;stroke-width:1;stroke-linejoin:miter;stroke-miterlimit:10;"/><text x="905" y="1002.631" fill="#000" font-size="13" textLength="76.908" font-family="Urbanist">implements</text></g><!--link Factory to IProgress--><g class="link" data-entity-1="ent0009" data-entity-2="ent0015" id="lnk44" data-source-line="83" data-link-type="dependency"><path d="M1532.94,732.704 C1505.68,750.674 1473.85,773.024 1447,795.564 C1409.02,827.464 1372.632,868.002 1357.092,885.862" style="stroke:#333;stroke-width:1;" fill="none" id="Factory-to-IProgress"/><polygon points="1353.81,889.634,1362.735,885.47,1357.092,885.862,1356.7,880.218,1353.81,889.634" fill="#333" style="stroke:#333;stroke-width:1;stroke-linejoin:miter;stroke-miterlimit:10;"/><text x="1479" y="783.631" fill="#000" font-size="13" textLength="138.69" font-family="Urbanist">ensambla módulo D1</text></g><!--link FetchClients to API--><g class="link" data-entity-1="ent0007" data-entity-2="ent0024" id="lnk45" data-source-line="84" data-link-type="dependency"><path d="M1874,1164.584 C1874,1209.464 1874,1263.324 1874,1301.494" style="stroke:#333;stroke-width:1;" fill="none" id="FetchClients-to-API"/><polygon points="1874,1306.494,1878,1297.494,1874,1301.494,1870,1297.494,1874,1306.494" fill="#333" style="stroke:#333;stroke-width:1;stroke-linejoin:miter;stroke-miterlimit:10;"/><text x="1875" y="1272.971" fill="#000" font-size="13" textLength="82.183" font-family="Urbanist">HTTP /api/v1</text></g><!--link L4 to GMN46--><g class="link" data-entity-1="ent0018" data-entity-2="ent0047" id="lnk48" data-source-line="87" data-link-type="association"><path d="M1037.616,961.624 C1038.39,961.846 1039.249,962.065 1040.193,962.282 C1043.967,963.15 1049.089,963.98 1055.468,964.774 C1068.225,966.363 1086.014,967.808 1108.117,969.124 C1152.323,971.758 1213.787,973.877 1286.786,975.601 C1432.784,979.049 1624.92,980.916 1817.398,982.15 C2202.353,984.619 2588.675,984.559 2610,989.564 C2673.78,1004.544 2740.81,1038.554 2786.33,1064.804" style="stroke:#333;stroke-width:1;stroke-dasharray:7,7;" fill="none" id="L4-GMN46"/></g><?plantuml-src fLVDRjj64BxpAGOEq5Xe8aLraYQ6Qu3MJofKibL9TY--hCcHlCrobzabbJXjWDnx3T1pBxtrb4FlzPluIJgx_14fCKc12a5CBcU-cPtvPdRsFlGvMsaMCGWH0XOp0xtnm3-rhxxMwZLCs5k4k_SVOCbH01CGt7uC-KgH13qBZZ91xpxiCoiTaV335OiGrjtse_QZ1uIfOqm8LYCJQ2okqK6drOOnBMOM3TBNMACXB2O9B52H0YQv4ChOlo4BbJa4D0dJz94iqfg2x_ALwFOFupmZVQtQi50XeGfc26efCBXcpcw8CSeGPS0Pi3Yrjk2QkRVGQSB-35V2XQA_aMsrFI_XYK0ukZhUYabl4x6ZpjNnfSm30etHW7_-jbvzoIV3CQ9evBvXiI_FCo-vZ1bb2wvOy7AbLIh3dX9AmxsX-rKaGbooL2H32jQfzU1SNr4WJL8HqHYGkHLjx1SFu4Jf47KET-1-j6hrvvnssptmtbLqAKEnakHNfli9TxPGdxXV3OTJiFII1VW_SLnUwivlFfwg19kWdm-URajLpVIUFVkswtlU9avxn83Xp9yCVZgR_J27hw0_6rqCPdERUx3PXHco887kS_jYoH7mXA3ePVxZc1Clw6c9IN3T-NwncEu1aM3SXNlznuEdmow5W7QwYUpU6DSevaXiIUQ1HfJGkPGlA9iN75_3_lpYHGiweDQe1Rinb_A87zlQAYefuKeUTVYnCtC-gcENpirV2NAihpd1b11SBZKpYKw39DNOYL4RuWxH53l6oPUucQ9rl1wcqUbYC1lwlG7uVN-wg0Lfrm9yxSfQAq6LhZTjehgLB5hVKBIU39yC3h9erVPaGzFBO0Hg6wpKO7snCKWTMwFbZdg95jl8MP2cMgr8pSmmLiR6xkO_1Ap4pJ2iBXmTiP35nFpZusrBGyiEbtW_vZtNJIXcbzAj5muqVFBJvBfXUOpKs_ILOZeiltxAQHRpqbcdd8cRpxaxaXECA13Euo_7HHSI74rfos5yAIvZ5J1Hx7-YmbJWa4hjCxQMxdFLKAv0Pegd2IRNAYHhpboTmVvqEXxr_CNex7H3tO0PvTYP6WKt4AUe4reeQStYMF2WmjS3wZIzuK5lMF2rjgif5Uw42lZSO8yPl9JxADSfYZMT8E27QqO4Sgqj5sWvq49h5wz1nN5XBdYukqeu3R8dAHVXYMLClkfiJXG5xBotQz9bVgmipPpw2qngkShiipKshDx8e5Z8cWbBM9CDMyD3OHlyJXrN0jungDSyg2QST2ZRSofpB98CbJDdRrHpQiFVZ9V5UfFUReMEcgjpLAlC33Wlh0RSdb31IyicKWkvccfSehPj98lOQ76D4MvMhUJT-pzTDBgFIphIIR4TcrZff59o4sw28XvrslVF9lwemdXorCvVv42SKdazeF54LiUM2lb35J6Uy_unyTxld_IVkODz9wDao2PrJk5ofvITdVPf4iKL7G2WsUrVRosiaw7ifIPZVYxVXEWOwuvT5C85AvlLQCKzp74L5GbmiWEPDE7C0pg0hDQK8fRXP4KrGqC35UnVdENEq4CJm9Gbrxrh35xc1R5GCSqJgviBHaN8Y5qbTxDuxTAshwBvEYYnTtYtrMUphBjfKaLSShL9SocUWxtpYl_VqVZaLRpU3AnsjgJaKZxywGXcW_a21c_iSMbQcUVsOACB0xuXj-J6c9M-Dt0_ZmRlkm_lwHyqJTI7a1GJUZaBDm_a6OXtFeA73u_ToGo7n5V2qVmje-67zYU9yPxxP6MAtaXo-3C6QS8strmxE8IOfSRgifzJsedniX76ILJEQ9BJX8DsCC4t_FQZzBmItChc7P44bNwLsfi8ZMIpQSihFZZ0dB3LjP9zDJXYKsOpJ2dJZeLUrW_TvqqgIKgGMvASfWkLvpPLCKMVoMDBLLOfdnfKsTUgYqLFAc3iOax4JJPzUppd8ngFOe6HkxA1lQSLpMU_bi9MaSDAQDjftFwruWUvN8BHXggZHo5QlDSaDuD38LODKXKoF-vhkxSCaOP5LyJFYEwqgL3GxzRDMmNBwqEmyphO4QcpxdgUfBi2NAaaKH6e9NKxggY1i1V4VbQ289LrW5e80qb3ZUrmXvIpx8Bmm3vbDmBtwAu4RS8OL-DOrhs1kzz_QzbhSeY1eCkAj1tUhtJtlkia173ZKi4gQShBrBWFrPpP-wihpR8kIPziSBdcv04ILd4J3NHArPPVnjsbd7QwTJsrEsnx10KsEFy2?></g></svg>